# xmcd
#
# Track frame offsets: 
#        150
#        13124
#        16553
#        28613
#        40282
#        52891
#        65119
#        69849
#        87288
#        101589
#        113262
#        133049
#        140281
#        149785
#        162816
#
# Disc length: 2410 seconds
#
# Revision: 1
# Processed by: cddbd v1.5.2PL0 Copyright (c) Steve Scherf et al.
# Submitted via: ExactAudioCopy v1.0b3
#
DISCID=c109680f
DTITLE=Jasmine Kara - Blues Ain't Nothing But A Good Woman Gone Bad
DYEAR=2011
DGENRE=Soul
TTITLE0=Fire
TTITLE1=The Mad Midget
TTITLE2=In The Basement - Part 1
TTITLE3=Are You Doing Me Wrong
TTITLE4=Ain't No More Room
TTITLE5=Try My Love Again
TTITLE6=Train Gone Mad
TTITLE7=Must I Holler
TTITLE8=My Party
TTITLE9=My Babe
TTITLE10=Ordinary Joe
TTITLE11=Midget In The Coal Mine
TTITLE12=In The Basement - Part 2
TTITLE13=Grits Ain't Groceries
TTITLE14=Liberation Conversation
EXTD=YEAR: 2011
EXTT0=
EXTT1=
EXTT2=
EXTT3=
EXTT4=
EXTT5=
EXTT6=
EXTT7=
EXTT8=
EXTT9=
EXTT10=
EXTT11=
EXTT12=
EXTT13=
EXTT14=
PLAYORDER=
